<?xml version="1.0" encoding="UTF-8" standalone="no"?>
<svg width="24px" height="24px" viewBox="0 0 24 24" version="1.1" xmlns="http://www.w3.org/2000/svg" xmlns:xlink="http://www.w3.org/1999/xlink">
    <!-- Generator: Sketch 45.1 (43504) - http://www.bohemiancoding.com/sketch -->
    <title>icons/home-filled</title>
    <desc>Created with Sketch.</desc>
    <defs></defs>
    <g id="Global" stroke="none" stroke-width="1" fill="none" fill-rule="evenodd">
        <g id="icons/home-filled" fill="#42526E">
            <path d="M18,12 L18,20.0044225 C18,20.5542648 17.544239,21 16.9975267,21 L7.00247329,21 C6.44882258,21 6,20.555163 6,20.0044225 L6,12 L3.99339768,12 C3.44475929,12 3.32031476,11.6796852 3.7062149,11.2937851 L11.6471893,3.35281067 C11.8420413,3.15795872 12.1562119,3.15621185 12.3528107,3.35281067 L20.2937851,11.2937851 C20.6838168,11.6838168 20.5550537,12 20.0066023,12 L18,12 Z M10,16.9979131 L10,21 L14,21 L14,16.9979131 C14,15.8982606 13.1045695,15 12,15 C10.8877296,15 10,15.8944962 10,16.9979131 Z" id="Combined-Shape"></path>
        </g>
    </g>
</svg>