<?xml version="1.0" encoding="utf-8"?>
<!-- Generator: Adobe Illustrator 19.2.0, SVG Export Plug-In . SVG Version: 6.00 Build 0)  -->
<svg version="1.1" id="pianokey" xmlns="http://www.w3.org/2000/svg" xmlns:xlink="http://www.w3.org/1999/xlink" x="0px" y="0px"
	 viewBox="0 0 208 212" enable-background="new 0 0 208 212" xml:space="preserve">
<g>
	<path fill="#314E55" d="M204,0H4C1.791,0,0,1.791,0,4v68v136c0,2.209,1.791,4,4,4h40h40h40h0.1992H164h40c2.209,0,4-1.791,4-4V72V4
		C208,1.791,206.209,0,204,0z"/>
	<polygon fill="#EAEAEA" points="8,8 200,8 200,68 184,68 176,68 152,68 144,68 124,68 96,68 72,68 56,68 32,68 24,68 8,68 	"/>
	<path fill="#F28544" d="M36,76h16v67.9648C52,148.3945,48.4121,152,44,152s-8-3.6055-8-8.0352V76z"/>
	<path fill="#E9E7D1" d="M48,159.4307c6.8811-1.793,12-8.0166,12-15.4658V76h8v67.9648c0,7.4492,5.1189,13.6729,12,15.4658V204H48
		V159.4307z"/>
	<path fill="#F28544" d="M84,152c-4.4121,0-8-3.6055-8-8.0352V76h16v67.9648C92,148.3945,88.4121,152,84,152z"/>
	<path fill="#E9E7D1" d="M88,159.4307c6.8811-1.793,12-8.0166,12-15.4658V76h20v128H88V159.4307z"/>
	<path fill="#E9E7D1" d="M128,76h16h4v67.9648c0,7.4492,5.1189,13.6729,12,15.4658V204h-32V76z"/>
	<path fill="#F28544" d="M164,152c-4.4121,0-8-3.6055-8-8.0352V76h16v67.9648C172,148.3945,168.4121,152,164,152z"/>
	<path fill="#E9E7D1" d="M8,76h16h4v67.9648c0,7.4492,5.1189,13.6729,12,15.4658V204H8V76z"/>
	<path fill="#E9E7D1" d="M200,204h-32v-44.5693c6.8811-1.793,12-8.0166,12-15.4658V76h4h16V204z"/>
	<path fill="#314E55" d="M56,36c0-11.0273-8.9727-20-20-20s-20,8.9727-20,20s8.9727,20,20,20S56,47.0273,56,36z"/>
	<path fill="#5ECB66" d="M24,36c0-6.6172,5.3828-12,12-12s12,5.3828,12,12s-5.3828,12-12,12S24,42.6172,24,36z"/>
	<path fill="#314E55" d="M76,32h20c2.209,0,4-1.791,4-4s-1.791-4-4-4H76c-2.209,0-4,1.791-4,4S73.791,32,76,32z"/>
	<path fill="#314E55" d="M76,52h20c2.209,0,4-1.791,4-4s-1.791-4-4-4H76c-2.209,0-4,1.791-4,4S73.791,52,76,52z"/>
	<path fill="#314E55" d="M120,56h64c2.209,0,4-1.791,4-4V24c0-2.209-1.791-4-4-4h-64c-2.209,0-4,1.791-4,4v28
		C116,54.209,117.791,56,120,56z"/>
	<rect x="124" y="28" fill="#73C9C9" width="56" height="20"/>
</g>
</svg>
